<svg xmlns="http://www.w3.org/2000/svg" width="81" height="80" viewBox="0 0 81 80" fill="none">
  <g filter="url(#filter0_d_403_26)">
    <path d="M40.5 0L40.7292 31.6859L44.3153 0.197212L41.1852 31.7332L48.0888 0.786686L41.6336 31.8272L51.7791 1.76197L42.0697 31.9669L55.3459 3.11236L42.4885 32.1509L58.75 4.82309L42.8855 32.3769L61.9542 6.87539L43.2564 32.6427L64.9233 9.24679L43.5971 32.9453L67.6248 11.9113L43.9039 33.2813L70.0291 14.8397L44.1734 33.6472L72.1099 18L44.4026 34.0388L73.8444 21.3575L44.5891 34.4519L75.2136 24.8754L44.7308 34.8819L76.2024 28.5152L44.8261 35.3242L76.8 32.237L44.874 35.7739L77 36L44.874 36.2261L76.8 39.763L44.8261 36.6758L76.2024 43.4848L44.7308 37.1181L75.2136 47.1246L44.5891 37.5481L73.8444 50.6425L44.4026 37.9612L72.1099 54L44.1734 38.3528L70.0291 57.1603L43.9039 38.7187L67.6248 60.0887L43.5971 39.0547L64.9233 62.7532L43.2564 39.3573L61.9542 65.1246L42.8855 39.6231L58.75 67.1769L42.4885 39.8491L55.3459 68.8876L42.0697 40.0331L51.7791 70.238L41.6336 40.1728L48.0888 71.2133L41.1852 40.2668L44.3153 71.8028L40.7292 40.3141L40.5 72L40.2708 40.3141L36.6847 71.8028L39.8148 40.2668L32.9112 71.2133L39.3664 40.1728L29.2209 70.238L38.9303 40.0331L25.6541 68.8876L38.5115 39.8491L22.25 67.1769L38.1145 39.6231L19.0458 65.1246L37.7436 39.3573L16.0767 62.7532L37.4029 39.0547L13.3752 60.0887L37.0961 38.7187L10.9709 57.1603L36.8266 38.3528L8.89007 54L36.5974 37.9612L7.15559 50.6425L36.4109 37.5481L5.78644 47.1246L36.2692 37.1181L4.79761 43.4848L36.1739 36.6758L4.19995 39.763L36.126 36.2261L4 36L36.126 35.7739L4.19995 32.237L36.1739 35.3242L4.79761 28.5152L36.2692 34.8819L5.78644 24.8754L36.4109 34.4519L7.15559 21.3575L36.5974 34.0388L8.89007 18L36.8266 33.6472L10.9709 14.8397L37.0961 33.2813L13.3752 11.9113L37.4029 32.9453L16.0767 9.24679L37.7436 32.6427L19.0458 6.87539L38.1145 32.3769L22.25 4.82309L38.5115 32.1509L25.6541 3.11236L38.9303 31.9669L29.2209 1.76197L39.3664 31.8272L32.9112 0.786686L39.8148 31.7332L36.6847 0.197212L40.2708 31.6859L40.5 0Z" fill="url(#paint0_linear_403_26)" shape-rendering="crispEdges"/>
  </g>
  <defs>
    <filter id="filter0_d_403_26" x="0" y="0" width="81" height="80" filterUnits="userSpaceOnUse" color-interpolation-filters="sRGB">
      <feFlood flood-opacity="0" result="BackgroundImageFix"/>
      <feColorMatrix in="SourceAlpha" type="matrix" values="0 0 0 0 0 0 0 0 0 0 0 0 0 0 0 0 0 0 127 0" result="hardAlpha"/>
      <feOffset dy="4"/>
      <feGaussianBlur stdDeviation="2"/>
      <feComposite in2="hardAlpha" operator="out"/>
      <feColorMatrix type="matrix" values="0 0 0 0 0 0 0 0 0 0 0 0 0 0 0 0 0 0 0.25 0"/>
      <feBlend mode="normal" in2="BackgroundImageFix" result="effect1_dropShadow_403_26"/>
      <feBlend mode="normal" in="SourceGraphic" in2="effect1_dropShadow_403_26" result="shape"/>
    </filter>
    <linearGradient id="paint0_linear_403_26" x1="40.5" y1="0" x2="40.5" y2="72" gradientUnits="userSpaceOnUse">
      <stop stop-color="#f000ff"/>
      <stop offset="1" stop-color="#150B0B" stop-opacity="0"/>
    </linearGradient>
  </defs>
</svg>