<svg version="1.1" viewBox="0.0 0.0 1040.0 720.0" fill="none" stroke="none" stroke-linecap="square" stroke-miterlimit="10" xmlns:xlink="http://www.w3.org/1999/xlink" xmlns="http://www.w3.org/2000/svg"><clipPath id="g23d85ea98e1_0_137.0"><path d="m0 0l1040.0 0l0 720.0l-1040.0 0l0 -720.0z" clip-rule="nonzero"/></clipPath><g clip-path="url(#g23d85ea98e1_0_137.0)"><path fill="#ffffff" d="m0 0l1040.0 0l0 720.0l-1040.0 0z" fill-rule="evenodd"/><path fill="#000000" fill-opacity="0.0" d="m410.3117 693.66675l219.37659 0l0 26.333252l-219.37659 0z" fill-rule="evenodd"/><path fill="#262626" d="m517.31866 708.77277l1.0 -0.125q0.171875 0.84375 0.578125 1.21875q0.421875 0.359375 1.015625 0.359375q0.703125 0 1.1875 -0.484375q0.484375 -0.484375 0.484375 -1.203125q0 -0.6875 -0.453125 -1.125q-0.453125 -0.453125 -1.140625 -0.453125q-0.28125 0 -0.703125 0.109375l0.109375 -0.875q0.109375 0.015625 0.15625 0.015625q0.640625 0 1.140625 -0.328125q0.515625 -0.328125 0.515625 -1.03125q0 -0.546875 -0.375 -0.90625q-0.359375 -0.359375 -0.953125 -0.359375q-0.578125 0 -0.96875 0.375q-0.375 0.359375 -0.484375 1.09375l-1.0 -0.1875q0.171875 -1.0 0.8125 -1.546875q0.65625 -0.546875 1.625 -0.546875q0.65625 0 1.21875 0.28125q0.5625 0.28125 0.859375 0.78125q0.296875 0.484375 0.296875 1.046875q0 0.515625 -0.28125 0.953125q-0.28125 0.4375 -0.84375 0.6875q0.71875 0.171875 1.109375 0.6875q0.40625 0.515625 0.40625 1.3125q0 1.0625 -0.78125 1.796875q-0.765625 0.734375 -1.953125 0.734375q-1.0625 0 -1.765625 -0.625q-0.703125 -0.640625 -0.8125 -1.65625z" fill-rule="nonzero"/><path fill="#000000" fill-opacity="0.0" d="m0 0l172.70363 0l0 24.234331l-172.70363 0z" fill-rule="evenodd"/><path fill="#7f7f7f" d="m9.578125 11.3324995q0 -2.140625 1.140625 -3.34375q1.15625 -1.21875 2.96875 -1.21875q1.203125 0 2.15625 0.578125q0.953125 0.5625 1.453125 1.578125q0.5 1.015625 0.5 2.3125q0 1.296875 -0.53125 2.328125q-0.53125 1.03125 -1.5 1.5625q-0.953125 0.53125 -2.078125 0.53125q-1.21875 0 -2.171875 -0.578125q-0.953125 -0.59375 -1.453125 -1.59375q-0.484375 -1.015625 -0.484375 -2.15625zm1.171875 0.015625q0 1.5625 0.828125 2.453125q0.84375 0.890625 2.109375 0.890625q1.28125 0 2.109375 -0.890625q0.828125 -0.90625 0.828125 -2.578125q0 -1.046875 -0.359375 -1.828125q-0.34375 -0.78125 -1.03125 -1.203125q-0.6875 -0.4375 -1.53125 -0.4375q-1.203125 0 -2.078125 0.828125q-0.875 0.828125 -0.875 2.765625zm8.162109 -0.015625q0 -2.140625 1.140625 -3.34375q1.15625 -1.21875 2.96875 -1.21875q1.203125 0 2.15625 0.578125q0.953125 0.5625 1.453125 1.578125q0.5 1.015625 0.5 2.3125q0 1.296875 -0.53125 2.328125q-0.53125 1.03125 -1.5 1.5625q-0.953125 0.53125 -2.078125 0.53125q-1.21875 0 -2.171875 -0.578125q-0.953125 -0.59375 -1.453125 -1.59375q-0.484375 -1.015625 -0.484375 -2.15625zm1.171875 0.015625q0 1.5625 0.828125 2.453125q0.84375 0.890625 2.109375 0.890625q1.28125 0 2.109375 -0.890625q0.828125 -0.90625 0.828125 -2.578125q0 -1.046875 -0.359375 -1.828125q-0.34375 -0.78125 -1.03125 -1.203125q-0.6875 -0.4375 -1.53125 -0.4375q-1.203125 0 -2.078125 0.828125q-0.875 0.828125 -0.875 2.765625zm8.162109 -0.015625q0 -2.140625 1.140625 -3.34375q1.15625 -1.21875 2.96875 -1.21875q1.203125 0 2.15625 0.578125q0.953125 0.5625 1.453125 1.578125q0.5 1.015625 0.5 2.3125q0 1.296875 -0.53125 2.328125q-0.53125 1.03125 -1.5 1.5625q-0.953125 0.53125 -2.078125 0.53125q-1.21875 0 -2.171875 -0.578125q-0.953125 -0.59375 -1.453125 -1.59375q-0.484375 -1.015625 -0.484375 -2.15625zm1.171875 0.015625q0 1.5625 0.828125 2.453125q0.84375 0.890625 2.109375 0.890625q1.28125 0 2.109375 -0.890625q0.828125 -0.90625 0.828125 -2.578125q0 -1.046875 -0.359375 -1.828125q-0.34375 -0.78125 -1.03125 -1.203125q-0.6875 -0.4375 -1.53125 -0.4375q-1.203125 0 -2.078125 0.828125q-0.875 0.828125 -0.875 2.765625z" fill-rule="nonzero"/><path fill="#7f7f7f" d="m46.783203 11.2856245l-1.453125 0l0.375 -3.171875q0 -0.171875 -0.09375 -0.28125q-0.09375 -0.078125 -0.234375 -0.09375q-0.140625 -0.015625 -0.234375 0.0625q-0.109375 0.078125 -0.125 0.234375l-0.375 3.25l-3.28125 0l-0.359375 -3.25q-0.03125 -0.171875 -0.140625 -0.25q-0.109375 -0.078125 -0.25 -0.0625q-0.140625 0.015625 -0.21875 0.09375q-0.109375 0.109375 -0.078125 0.265625l0.359375 3.203125l-1.453125 0q-0.3125 0 -0.3125 0.296875q0 0.296875 0.28125 0.296875l7.625 0q0.296875 0 0.28125 -0.296875q0 -0.296875 -0.3125 -0.296875zm-0.046875 -4.65625l-7.5 0q-0.328125 0 -0.328125 0.296875q0 0.3125 0.328125 0.3125l7.546875 0q0.140625 0 0.234375 -0.109375q0.078125 -0.078125 0.0625 -0.203125q0 -0.125 -0.078125 -0.203125q-0.109375 -0.09375 -0.265625 -0.09375zm0.796875 8.078125l-9.078125 0q-0.15625 0 -0.25 0.078125q-0.09375 0.09375 -0.09375 0.21875q-0.015625 0.109375 0.046875 0.203125q0.078125 0.09375 0.203125 0.09375l9.265625 0q0.140625 0 0.203125 -0.09375q0.078125 -0.09375 0.078125 -0.203125q-0.015625 -0.125 -0.109375 -0.21875q-0.09375 -0.078125 -0.265625 -0.078125zm10.0625 -8.078125l-6.125 0q-0.34375 0 -0.34375 0.296875q0 0.3125 0.34375 0.3125l6.0 0q0.296875 0 0.421875 0.078125q0.140625 0.09375 0.140625 0.328125l0 0.953125q0 0.1875 -0.140625 0.28125q-0.140625 0.078125 -0.390625 0.078125l-5.328125 0q-0.515625 0 -0.8125 0.296875q-0.265625 0.265625 -0.265625 0.703125l0 1.265625q0 0.46875 0.265625 0.75q0.25 0.28125 0.703125 0.28125l6.609375 0q0.15625 0 0.234375 -0.09375q0.078125 -0.09375 0.078125 -0.21875q0 -0.109375 -0.09375 -0.203125q-0.09375 -0.09375 -0.25 -0.09375l-6.296875 0q-0.3125 0 -0.4375 -0.09375q-0.109375 -0.109375 -0.109375 -0.34375l0 -1.1875q0 -0.25 0.109375 -0.34375q0.125 -0.109375 0.40625 -0.109375l5.296875 0q0.578125 0 0.84375 -0.203125q0.28125 -0.203125 0.28125 -0.703125l0 -1.09375q0 -0.46875 -0.28125 -0.703125q-0.296875 -0.234375 -0.859375 -0.234375zm-2.921875 5.796875l0 2.28125l-4.21875 0q-0.15625 0 -0.25 0.078125q-0.09375 0.09375 -0.09375 0.21875q-0.015625 0.109375 0.046875 0.203125q0.078125 0.09375 0.203125 0.09375l9.203125 0q0.15625 0 0.25 -0.09375q0.09375 -0.09375 0.09375 -0.203125q0 -0.125 -0.09375 -0.21875q-0.09375 -0.078125 -0.265625 -0.078125l-4.1875 0l0 -2.234375q0 -0.171875 -0.125 -0.265625q-0.09375 -0.09375 -0.21875 -0.09375q-0.140625 0 -0.234375 0.078125q-0.109375 0.078125 -0.109375 0.234375zm12.171875 -5.84375l-3.890625 0q-0.328125 0 -0.328125 0.296875q0 0.3125 0.328125 0.3125l1.59375 0l0 0.421875q0 1.3125 -0.65625 2.203125q-0.46875 0.609375 -1.4375 1.1875q-0.15625 0.078125 -0.203125 0.21875q-0.015625 0.125 0.0625 0.234375q0.078125 0.125 0.21875 0.15625q0.140625 0.046875 0.28125 -0.015625q0.71875 -0.421875 1.296875 -1.046875q0.578125 -0.640625 0.78125 -1.21875q0.1875 0.578125 0.765625 1.171875q0.546875 0.578125 1.25 0.953125q0.125 0.0625 0.265625 0.015625q0.109375 -0.0625 0.1875 -0.171875q0.09375 -0.125 0.0625 -0.25q-0.03125 -0.140625 -0.1875 -0.203125q-0.90625 -0.484375 -1.359375 -1.078125q-0.640625 -0.859375 -0.640625 -2.1875l0 -0.390625l1.609375 0q0.28125 0 0.28125 -0.3125q0 -0.296875 -0.28125 -0.296875zm1.328125 0.0625l0 2.109375l-1.40625 0q-0.328125 0 -0.328125 0.296875q-0.015625 0.296875 0.3125 0.296875l1.421875 0l0 1.96875q0 0.15625 0.109375 0.265625q0.09375 0.078125 0.25 0.078125q0.140625 0 0.234375 -0.078125q0.109375 -0.109375 0.109375 -0.265625l0 -4.6875q0 -0.15625 -0.109375 -0.234375q-0.09375 -0.09375 -0.234375 -0.078125q-0.15625 0 -0.25 0.078125q-0.109375 0.09375 -0.109375 0.25zm2.921875 4.671875l0 -4.6875q0 -0.15625 -0.125 -0.234375q-0.09375 -0.09375 -0.21875 -0.09375q-0.140625 0 -0.234375 0.09375q-0.109375 0.09375 -0.109375 0.234375l0 4.6875q0 0.15625 0.109375 0.265625q0.09375 0.078125 0.234375 0.078125q0.125 0 0.21875 -0.078125q0.125 -0.109375 0.125 -0.265625zm-1.109375 1.546875l-6.71875 0q-0.359375 0 -0.359375 0.3125q0 0.296875 0.359375 0.296875l6.6875 0q0.234375 0 0.359375 0.09375q0.09375 0.09375 0.09375 0.296875l0 1.90625q0 0.15625 0.109375 0.26562595q0.09375 0.078125 0.234375 0.078125q0.125 0 0.21875 -0.078125q0.125 -0.10937595 0.125 -0.26562595l0 -1.9375q0 -0.4375 -0.3125 -0.703125q-0.296875 -0.265625 -0.796875 -0.265625zm12.75 -6.234375l-6.546875 0q-0.5625 0 -0.859375 0.296875q-0.28125 0.296875 -0.28125 0.75l0 3.5625q0 0.46875 0.28125 0.734375q0.296875 0.28125 0.828125 0.28125l6.625 0q0.140625 0 0.234375 -0.09375q0.078125 -0.09375 0.0625 -0.21875q0 -0.109375 -0.078125 -0.203125q-0.09375 -0.09375 -0.25 -0.09375l-6.484375 0q-0.28125 0 -0.40625 -0.109375q-0.109375 -0.109375 -0.109375 -0.359375l0 -1.515625l6.875 0q0.34375 0 0.34375 -0.3125q0 -0.28125 -0.34375 -0.28125l-6.875 0l0 -1.3125q0 -0.28125 0.125 -0.40625q0.140625 -0.109375 0.4375 -0.109375l6.46875 0q0.140625 0 0.234375 -0.109375q0.078125 -0.078125 0.0625 -0.203125q0 -0.125 -0.078125 -0.203125q-0.109375 -0.09375 -0.265625 -0.09375zm0.796875 8.078125l-9.078125 0q-0.15625 0 -0.25 0.078125q-0.09375 0.09375 -0.09375 0.21875q-0.015625 0.109375 0.046875 0.203125q0.078125 0.09375 0.203125 0.09375l9.265625 0q0.140625 0 0.203125 -0.09375q0.078125 -0.09375 0.078125 -0.203125q-0.015625 -0.125 -0.109375 -0.21875q-0.09375 -0.078125 -0.265625 -0.078125z" fill-rule="nonzero"/><path fill="#7f7f7f" d="m95.72656 8.0356245l-5.53125 0q-0.328125 0 -0.328125 0.3125q0 0.296875 0.328125 0.296875l5.578125 0q0.15625 0 0.234375 -0.09375q0.09375 -0.09375 0.09375 -0.203125q-0.015625 -0.125 -0.09375 -0.21875q-0.109375 -0.09375 -0.28125 -0.09375zm-1.125 -1.390625l-3.25 0q-0.328125 0 -0.328125 0.296875q0 0.296875 0.328125 0.296875l3.265625 0q0.328125 0 0.3125 -0.296875q0 -0.296875 -0.328125 -0.296875zm-1.609375 2.734375q-1.25 0 -1.984375 0.578125q-0.640625 0.515625 -0.640625 1.265625q0 0.75 0.640625 1.28125q0.734375 0.59375 1.984375 0.59375q1.21875 0 1.9375 -0.59375q0.65625 -0.53125 0.65625 -1.28125q0 -0.75 -0.65625 -1.265625q-0.734375 -0.578125 -1.9375 -0.578125zm0 0.59375q0.90625 0 1.421875 0.390625q0.46875 0.34375 0.46875 0.859375q0 0.515625 -0.46875 0.875q-0.5 0.390625 -1.421875 0.390625q-0.9375 0 -1.46875 -0.390625q-0.453125 -0.359375 -0.453125 -0.875q0 -0.515625 0.453125 -0.859375q0.53125 -0.390625 1.46875 -0.390625zm0.296875 4.75l0 -1.953125l-0.6875 0l0 2.0q-0.796875 0.015625 -1.6875 0.046875q-0.6875 0.015625 -1.234375 0.015625q-0.171875 0 -0.28125 0.078125q-0.078125 0.09375 -0.078125 0.203125q0 0.125 0.109375 0.21875q0.109375 0.09375 0.296875 0.09375q2.28125 0 3.703125 -0.15625q1.75 -0.171875 3.0 -0.609375q0.28125 -0.109375 0.1875 -0.390625q-0.09375 -0.265625 -0.40625 -0.140625q-0.75 0.234375 -1.53125 0.390625q-0.671875 0.140625 -1.390625 0.203125zm4.484375 -3.71875l0 -4.375q0 -0.15625 -0.125 -0.234375q-0.09375 -0.09375 -0.234375 -0.09375q-0.140625 0 -0.234375 0.09375q-0.09375 0.09375 -0.09375 0.234375l0 9.140625q0 0.15625 0.09375 0.25000095q0.09375 0.09375 0.234375 0.09375q0.140625 0 0.234375 -0.09375q0.125 -0.09375095 0.125 -0.23437595l0 -4.203125l1.3125 0q0.125 0 0.203125 -0.09375q0.0625 -0.078125 0.0625 -0.203125q-0.015625 -0.109375 -0.09375 -0.203125q-0.078125 -0.078125 -0.234375 -0.078125l-1.25 0zm8.4375 -3.234375l0 3.078125q0 0.25 -0.125 0.359375q-0.125 0.078125 -0.40625 0.078125l-2.5 0q-0.296875 0 -0.40625 -0.09375q-0.109375 -0.09375 -0.109375 -0.34375l0 -3.03125q0 -0.296875 0.09375 -0.421875q0.125 -0.125 0.40625 -0.125l2.5 0q0.296875 0 0.421875 0.125q0.125 0.125 0.125 0.375zm-0.421875 -1.09375l-2.78125 0q-0.484375 0 -0.765625 0.296875q-0.28125 0.28125 -0.28125 0.703125l0 3.25q0 0.421875 0.265625 0.6875q0.265625 0.265625 0.703125 0.265625l2.890625 0q0.484375 0 0.78125 -0.25q0.28125 -0.265625 0.28125 -0.71875l0 -3.3125q0 -0.40625 -0.296875 -0.65625q-0.3125 -0.265625 -0.796875 -0.265625zm4.328125 6.421875l0 -6.46875q0 -0.15625 -0.125 -0.234375q-0.09375 -0.09375 -0.234375 -0.09375q-0.15625 0 -0.25 0.09375q-0.09375 0.09375 -0.09375 0.234375l0 1.5l-2.015625 0q-0.171875 0 -0.265625 0.09375q-0.078125 0.09375 -0.078125 0.203125q0.015625 0.125 0.109375 0.21875q0.109375 0.09375 0.296875 0.09375l1.953125 0l0 1.53125l-1.984375 0q-0.171875 0 -0.28125 0.078125q-0.078125 0.078125 -0.078125 0.21875q0 0.109375 0.09375 0.1875q0.09375 0.09375 0.28125 0.09375l1.96875 0l0 2.25q0 0.171875 0.09375 0.28125q0.09375 0.09375 0.25 0.09375q0.140625 0 0.234375 -0.09375q0.125 -0.109375 0.125 -0.28125zm-6.84375 0.140625q0 -0.1875 -0.109375 -0.296875q-0.09375 -0.09375 -0.234375 -0.09375q-0.15625 0 -0.25 0.09375q-0.109375 0.109375 -0.109375 0.296875l0 1.546875q0 0.515625 0.328125 0.796875q0.3125 0.25 0.84375 0.25l6.421875 0q0.296875 0 0.296875 -0.296875q0 -0.296875 -0.296875 -0.296875l-6.3125 0q-0.34375 0 -0.453125 -0.109375q-0.125 -0.109375 -0.125 -0.4375l0 -1.453125z" fill-rule="nonzero"/><path fill="#7f7f7f" d="m119.56055 6.8481245q0 0.984375 -0.59375 2.171875q-0.734375 1.453125 -1.953125 2.296875q-0.171875 0.109375 -0.1875 0.25q-0.03125 0.140625 0.046875 0.25q0.078125 0.109375 0.203125 0.125q0.140625 0.03125 0.28125 -0.0625q0.890625 -0.703125 1.453125 -1.40625q0.5 -0.609375 0.953125 -1.546875q0.8125 0.609375 1.421875 1.21875q0.640625 0.625 1.203125 1.390625q0.109375 0.140625 0.25 0.15625q0.140625 0.03125 0.25 -0.046875q0.109375 -0.09375 0.125 -0.21875q0.015625 -0.15625 -0.09375 -0.296875q-0.65625 -0.859375 -1.265625 -1.453125q-0.65625 -0.609375 -1.6875 -1.359375q0.140625 -0.390625 0.1875 -0.6875q0.09375 -0.40625 0.09375 -0.78125q0 -0.171875 -0.109375 -0.265625q-0.09375 -0.09375 -0.234375 -0.09375q-0.140625 0 -0.234375 0.09375q-0.109375 0.09375 -0.109375 0.265625zm5.546875 2.296875l0 -2.53125q0 -0.3125 -0.359375 -0.3125q-0.328125 0 -0.328125 0.328125l0 5.390625q0 0.15625 0.09375 0.265625q0.09375 0.078125 0.234375 0.078125q0.140625 0 0.234375 -0.078125q0.125 -0.09375 0.125 -0.265625l0 -2.28125l1.296875 0q0.125 0 0.21875 -0.09375q0.0625 -0.09375 0.0625 -0.203125q-0.015625 -0.125 -0.09375 -0.21875q-0.078125 -0.078125 -0.234375 -0.078125l-1.25 0zm-3.609375 3.421875q-1.890625 0 -2.890625 0.53125q-0.921875 0.46875 -0.921875 1.265625q0 0.78125 0.921875 1.25q1.0 0.53125095 2.890625 0.53125095q1.875 0 2.875 -0.53125095q0.921875 -0.46875 0.921875 -1.25q0 -0.796875 -0.921875 -1.265625q-1.0 -0.53125 -2.875 -0.53125zm0 0.609375q1.546875 0 2.359375 0.328125q0.75 0.3125 0.75 0.859375q0 0.53125 -0.75 0.84375q-0.8125 0.34375 -2.359375 0.34375q-1.5625 0 -2.375 -0.34375q-0.75 -0.3125 -0.75 -0.84375q0 -0.546875 0.75 -0.859375q0.796875 -0.328125 2.375 -0.328125zm9.6875 -6.25q0 2.4375 -0.671875 4.59375q-0.578125 1.90625 -1.515625 3.109375q-0.125 0.15625 -0.109375 0.296875q0 0.109375 0.109375 0.1875q0.09375 0.0625 0.21875 0.046875q0.140625 -0.046875 0.25 -0.15625q0.671875 -0.875 1.15625 -1.953125q0.40625 -0.890625 0.6875 -1.984375q0.5625 0.84375 1.078125 1.796875q0.484375 0.890625 0.953125 1.96875q0.078125 0.15625 0.203125 0.234375q0.125 0.046875 0.25 0q0.109375 -0.046875 0.15625 -0.171875q0.046875 -0.140625 -0.03125 -0.3125q-0.453125 -1.109375 -1.0625 -2.15625q-0.5625 -0.984375 -1.359375 -2.125q0.1875 -1.09375 0.28125 -1.96875q0.09375 -0.8125 0.09375 -1.40625q0 -0.171875 -0.109375 -0.265625q-0.09375 -0.078125 -0.234375 -0.078125q-0.140625 0 -0.234375 0.078125q-0.109375 0.09375 -0.109375 0.265625zm4.40625 8.828125l0 -9.125q0 -0.15625 -0.109375 -0.234375q-0.09375 -0.09375 -0.234375 -0.09375q-0.140625 0 -0.234375 0.09375q-0.109375 0.09375 -0.109375 0.234375l0 3.65625l-2.1875 0q-0.15625 0 -0.25 0.078125q-0.078125 0.09375 -0.078125 0.203125q0 0.125 0.09375 0.21875q0.109375 0.09375 0.296875 0.09375l2.125 0l0 4.875q0 0.171875 0.109375 0.26562595q0.09375 0.09375 0.234375 0.09375q0.140625 0 0.234375 -0.09375q0.109375 -0.09375095 0.109375 -0.26562595zm2.171875 0l0 -9.125q0 -0.15625 -0.125 -0.234375q-0.09375 -0.09375 -0.21875 -0.09375q-0.140625 0 -0.234375 0.09375q-0.109375 0.09375 -0.109375 0.234375l0 9.125q0 0.171875 0.109375 0.26562595q0.09375 0.09375 0.234375 0.09375q0.125 0 0.21875 -0.09375q0.125 -0.09375095 0.125 -0.26562595zm5.796875 -8.921875q0 0.921875 -0.578125 2.0q-0.703125 1.296875 -2.015625 2.28125q-0.171875 0.109375 -0.1875 0.25q-0.015625 0.125 0.078125 0.21875q0.078125 0.09375 0.203125 0.109375q0.15625 0 0.296875 -0.09375q0.828125 -0.625 1.390625 -1.296875q0.53125 -0.609375 0.890625 -1.28125q0.796875 0.5 1.359375 0.96875q0.71875 0.59375 1.359375 1.40625q0.109375 0.125 0.28125 0.140625q0.140625 0.015625 0.234375 -0.078125q0.125 -0.09375 0.125 -0.234375q0.015625 -0.15625 -0.109375 -0.296875q-0.78125 -0.828125 -1.421875 -1.34375q-0.71875 -0.609375 -1.59375 -1.125q0.1875 -0.453125 0.28125 -0.828125q0.125 -0.390625 0.125 -0.75q0 -0.1875 -0.125 -0.296875q-0.09375 -0.09375 -0.234375 -0.09375q-0.140625 0 -0.25 0.09375q-0.109375 0.09375 -0.109375 0.25zm5.890625 4.25l0 -4.453125q0 -0.15625 -0.125 -0.234375q-0.09375 -0.09375 -0.234375 -0.09375q-0.15625 0 -0.25 0.09375q-0.09375 0.09375 -0.09375 0.234375l0 1.8125l-3.0 0q-0.171875 0 -0.265625 0.078125q-0.078125 0.09375 -0.078125 0.21875q0 0.109375 0.09375 0.203125q0.109375 0.09375 0.28125 0.09375l2.96875 0l0 2.046875q0 0.15625 0.09375 0.25q0.09375 0.078125 0.25 0.078125q0.140625 0 0.234375 -0.078125q0.125 -0.09375 0.125 -0.25zm-1.078125 0.96875l-6.21875 0q-0.359375 0 -0.34375 0.296875q0 0.296875 0.34375 0.296875l6.125 0q0.25 0 0.359375 0.078125q0.109375 0.09375 0.109375 0.296875l0 0.3125q0 0.171875 -0.140625 0.234375q-0.09375 0.078125 -0.3125 0.078125l-5.578125 0q-0.390625 0 -0.625 0.21875q-0.25 0.21875 -0.25 0.609375l0 0.6875q0 0.375 0.25 0.609375q0.25 0.21875 0.65625 0.21875l6.6875 0q0.15625 0 0.234375 -0.09375q0.078125 -0.09375 0.078125 -0.203125q-0.015625 -0.125 -0.09375 -0.21875q-0.109375 -0.078125 -0.265625 -0.078125l-6.453125 0q-0.203125 0 -0.296875 -0.078125q-0.109375 -0.0625 -0.109375 -0.25l0 -0.453125q0 -0.1875 0.078125 -0.28125q0.109375 -0.09375 0.34375 -0.09375l5.5625 0q0.421875 0 0.671875 -0.21875q0.265625 -0.21875 0.265625 -0.59375l0 -0.5q0 -0.40625 -0.28125 -0.640625q-0.28125 -0.234375 -0.796875 -0.234375zm7.578125 -5.375l-2.53125 0q-0.328125 0 -0.3125 0.28125q0 0.3125 0.328125 0.3125l2.4375 0q0.328125 0 0.484375 0.140625q0.171875 0.140625 0.171875 0.421875l0 1.390625q0 2.46875 -0.84375 3.765625q-0.8125 1.25 -2.484375 1.4375q-0.171875 0.015625 -0.25 0.109375q-0.078125 0.09375 -0.078125 0.21875q0.015625 0.125 0.109375 0.203125q0.109375 0.078125 0.265625 0.0625q1.84375 -0.15625 2.875 -1.609375q1.109375 -1.53125 1.109375 -4.25l0 -1.453125q0 -0.46875 -0.375 -0.75q-0.34375 -0.28125 -0.90625 -0.28125zm2.96875 -0.0625l0 2.3125l-2.28125 0l0 0.59375l2.28125 0l0 2.34375l-1.84375 0q-0.359375 0 -0.359375 0.296875q0 0.296875 0.34375 0.296875l1.859375 0l0 3.328125q0 0.15625 0.109375 0.26562595q0.09375 0.078125 0.234375 0.078125q0.140625 0 0.234375 -0.09375q0.125 -0.10937595 0.125 -0.26562595l0 -9.15625q0 -0.3125 -0.359375 -0.3125q-0.34375 0 -0.34375 0.3125zm2.84375 9.15625l0 -9.15625q0 -0.15625 -0.125 -0.234375q-0.09375 -0.078125 -0.21875 -0.078125q-0.140625 0 -0.234375 0.078125q-0.109375 0.09375 -0.109375 0.25l0 9.140625q0 0.15625 0.109375 0.26562595q0.09375 0.09375 0.234375 0.09375q0.125 0 0.21875 -0.09375q0.125 -0.10937595 0.125 -0.26562595z" fill-rule="nonzero"/><a xlink:href="#slide=id.p2" target="_blank" rel="noreferrer"><path fill="transparent" fill-opacity="0" d="m0 0l172.70363 0l0 24.234331l-172.70363 0z" fill-rule="evenodd"/></a><path fill="#ffffff" d="m9.306247 63.48777l804.51306 0l0 633.71533l-804.51306 0z" fill-rule="evenodd"/><path stroke="#c0c0c0" stroke-width="1.0" stroke-miterlimit="800.0" stroke-linecap="butt" d="m9.306247 63.48777l804.51306 0l0 633.71533l-804.51306 0z" fill-rule="evenodd"/><path fill="#ffffff" d="m820.29315 26.569763l211.47968 0l0 670.19977l-211.47968 0z" fill-rule="evenodd"/><path stroke="#c0c0c0" stroke-width="1.0" stroke-miterlimit="800.0" stroke-linecap="butt" d="m820.29315 26.569763l211.47968 0l0 670.19977l-211.47968 0z" fill-rule="evenodd"/><path fill="#000000" d="m820.29315 26.415329l211.47968 0l0 16.160313l-211.47968 0z" fill-rule="evenodd"/><path stroke="#000000" stroke-width="1.0" stroke-miterlimit="800.0" stroke-linecap="butt" d="m820.29315 26.415329l211.47968 0l0 16.160313l-211.47968 0z" fill-rule="evenodd"/><path fill="#ffffff" d="m828.0119 37.855484l0 -6.671873l2.296875 0q0.78125 0 1.1875 0.09375q0.578125 0.125 0.984375 0.46875q0.53125 0.4531231 0.78125 1.1562481q0.265625 0.6875 0.265625 1.578125q0 0.765625 -0.171875 1.359375q-0.171875 0.578125 -0.453125 0.96875q-0.28125 0.375 -0.609375 0.59375q-0.328125 0.21875 -0.796875 0.34375q-0.46875 0.109375 -1.078125 0.109375l-2.40625 0zm0.890625 -0.78125l1.421875 0q0.65625 0 1.03125 -0.125q0.375 -0.125 0.609375 -0.34375q0.3125 -0.328125 0.484375 -0.84375q0.171875 -0.53125 0.171875 -1.296875q0 -1.046875 -0.34375 -1.609375q-0.34375 -0.5625 -0.828125 -0.75q-0.359375 -0.1406231 -1.15625 -0.1406231l-1.390625 0l0 5.109373zm9.04895 -0.78125l0.84375 0.109375q-0.1875 0.75 -0.734375 1.15625q-0.546875 0.40625 -1.390625 0.40625q-1.0625 0 -1.6875 -0.65625q-0.609375 -0.65625 -0.609375 -1.828125q0 -1.21875 0.625 -1.890625q0.625 -0.6875 1.625 -0.6875q0.984375 0 1.59375 0.671875q0.609375 0.65625 0.609375 1.859375q0 0.0625 0 0.21875l-3.609375 0q0.046875 0.796875 0.453125 1.21875q0.40625 0.421875 1.015625 0.421875q0.453125 0 0.765625 -0.234375q0.3125 -0.234375 0.5 -0.765625zm-2.6875 -1.328125l2.703125 0q-0.0625 -0.609375 -0.3125 -0.90625q-0.390625 -0.46875 -1.015625 -0.46875q-0.5625 0 -0.953125 0.375q-0.375 0.375 -0.421875 1.0zm4.234741 1.453125l0.8125 -0.140625q0.078125 0.5 0.390625 0.765625q0.3125 0.25 0.859375 0.25q0.578125 0 0.84375 -0.234375q0.28125 -0.234375 0.28125 -0.53125q0 -0.28125 -0.25 -0.4375q-0.171875 -0.109375 -0.84375 -0.28125q-0.890625 -0.234375 -1.25 -0.390625q-0.34375 -0.171875 -0.53125 -0.46875q-0.171875 -0.296875 -0.171875 -0.640625q0 -0.328125 0.140625 -0.59375q0.15625 -0.28125 0.40625 -0.46875q0.203125 -0.140625 0.53125 -0.234375q0.328125 -0.109375 0.703125 -0.109375q0.578125 0 1.0 0.171875q0.4375 0.15625 0.640625 0.4375q0.203125 0.28125 0.28125 0.75l-0.796875 0.109375q-0.0625 -0.375 -0.328125 -0.578125q-0.265625 -0.203125 -0.734375 -0.203125q-0.5625 0 -0.8125 0.1875q-0.234375 0.171875 -0.234375 0.4375q0 0.15625 0.09375 0.28125q0.109375 0.125 0.3125 0.21875q0.125 0.046875 0.734375 0.203125q0.859375 0.234375 1.203125 0.390625q0.34375 0.140625 0.53125 0.421875q0.203125 0.28125 0.203125 0.703125q0 0.40625 -0.234375 0.78125q-0.234375 0.359375 -0.6875 0.5625q-0.453125 0.1875 -1.015625 0.1875q-0.953125 0 -1.453125 -0.390625q-0.484375 -0.390625 -0.625 -1.15625zm8.1484375 -0.328125l0.8125 0.09375q-0.125 0.84375 -0.671875 1.3125q-0.546875 0.46875 -1.34375 0.46875q-0.984375 0 -1.59375 -0.640625q-0.609375 -0.65625 -0.609375 -1.875q0 -0.78125 0.265625 -1.359375q0.265625 -0.59375 0.78125 -0.890625q0.53125 -0.296875 1.15625 -0.296875q0.796875 0 1.296875 0.40625q0.5 0.390625 0.640625 1.125l-0.796875 0.125q-0.109375 -0.484375 -0.40625 -0.71875q-0.28125 -0.25 -0.703125 -0.25q-0.609375 0 -1.0 0.4375q-0.390625 0.4375 -0.390625 1.40625q0 0.96875 0.375 1.421875q0.375 0.4375 0.984375 0.4375q0.46875 0 0.796875 -0.296875q0.328125 -0.296875 0.40625 -0.90625zm1.5078125 1.765625l0 -4.84375l0.734375 0l0 0.734375q0.28125 -0.515625 0.515625 -0.671875q0.25 -0.171875 0.53125 -0.171875q0.421875 0 0.84375 0.265625l-0.28125 0.765625q-0.296875 -0.171875 -0.609375 -0.171875q-0.265625 0 -0.484375 0.15625q-0.203125 0.15625 -0.296875 0.453125q-0.140625 0.4375 -0.140625 0.953125l0 2.53125l-0.8125 0zm3.1219482 -5.734375l0 -0.9374981l0.8125 0l0 0.9374981l-0.8125 0zm0 5.734375l0 -4.84375l0.8125 0l0 4.84375l-0.8125 0zm2.0568237 1.859375l0 -6.703125l0.75 0l0 0.640625q0.265625 -0.375 0.59375 -0.5625q0.34375 -0.1875 0.8125 -0.1875q0.625 0 1.09375 0.328125q0.46875 0.3125 0.703125 0.90625q0.25 0.578125 0.25 1.265625q0 0.734375 -0.265625 1.328125q-0.265625 0.59375 -0.78125 0.921875q-0.5 0.3125 -1.0625 0.3125q-0.40625 0 -0.734375 -0.171875q-0.328125 -0.171875 -0.53125 -0.4375l0 2.359375l-0.828125 0zm0.75 -4.25q0 0.9375 0.375 1.390625q0.375 0.4375 0.921875 0.4375q0.546875 0 0.921875 -0.453125q0.390625 -0.46875 0.390625 -1.4375q0 -0.9375 -0.375 -1.390625q-0.375 -0.453125 -0.90625 -0.453125q-0.53125 0 -0.9375 0.484375q-0.390625 0.484375 -0.390625 1.421875zm6.234741 1.65625l0.109375 0.71875q-0.34375 0.078125 -0.609375 0.078125q-0.453125 0 -0.703125 -0.140625q-0.234375 -0.140625 -0.34375 -0.359375q-0.09375 -0.234375 -0.09375 -0.984375l0 -2.78125l-0.609375 0l0 -0.640625l0.609375 0l0 -1.1874981l0.8125 -0.5l0 1.6874981l0.828125 0l0 0.640625l-0.828125 0l0 2.828125q0 0.359375 0.046875 0.46875q0.046875 0.09375 0.140625 0.15625q0.09375 0.046875 0.28125 0.046875q0.140625 0 0.359375 -0.03125zm0.8104248 -5.0l0 -0.9374981l0.8125 0l0 0.9374981l-0.8125 0zm0 5.734375l0 -4.84375l0.8125 0l0 4.84375l-0.8125 0zm1.7598877 -2.421875q0 -1.34375 0.75 -1.984375q0.625 -0.546875 1.515625 -0.546875q1.0 0 1.625 0.65625q0.640625 0.65625 0.640625 1.8125q0 0.9375 -0.28125 1.46875q-0.28125 0.53125 -0.8125 0.828125q-0.53125 0.296875 -1.171875 0.296875q-1.015625 0 -1.640625 -0.640625q-0.625 -0.65625 -0.625 -1.890625zm0.84375 0q0 0.9375 0.40625 1.40625q0.40625 0.453125 1.015625 0.453125q0.609375 0 1.015625 -0.46875q0.40625 -0.46875 0.40625 -1.421875q0 -0.890625 -0.40625 -1.34375q-0.40625 -0.46875 -1.015625 -0.46875q-0.609375 0 -1.015625 0.46875q-0.40625 0.453125 -0.40625 1.375zm4.640991 2.421875l0 -4.84375l0.75 0l0 0.6875q0.53125 -0.796875 1.53125 -0.796875q0.4375 0 0.796875 0.171875q0.375 0.15625 0.546875 0.40625q0.1875 0.25 0.265625 0.609375q0.046875 0.21875 0.046875 0.796875l0 2.96875l-0.828125 0l0 -2.9375q0 -0.5 -0.09375 -0.75q-0.09375 -0.25 -0.34375 -0.390625q-0.234375 -0.15625 -0.5625 -0.15625q-0.515625 0 -0.90625 0.328125q-0.375 0.328125 -0.375 1.265625l0 2.640625l-0.828125 0z" fill-rule="nonzero"/><path fill="#ffffff" d="m9.306247 26.569658l804.51306 0l0 18.897638l-804.51306 0z" fill-rule="evenodd"/><path stroke="#c0c0c0" stroke-width="1.0" stroke-miterlimit="800.0" stroke-linecap="butt" d="m9.306247 26.569658l804.51306 0l0 18.897638l-804.51306 0z" fill-rule="evenodd"/><path fill="#000000" d="m9.306247 26.569763l65.31706 0l0 18.89764l-65.31706 0z" fill-rule="evenodd"/><path stroke="#000000" stroke-width="1.0" stroke-miterlimit="800.0" stroke-linecap="butt" d="m9.306247 26.569763l65.31706 0l0 18.89764l-65.31706 0z" fill-rule="evenodd"/><path fill="#ffffff" d="m33.72258 33.566082l-4.296875 0q-0.265625 0 -0.265625 0.234375q0 0.234375 0.265625 0.234375l4.328125 0q0.125 0 0.1875 -0.078125q0.0625 -0.0625 0.0625 -0.15625q-0.015625 -0.09375 -0.078125 -0.15625q-0.078125 -0.078125 -0.203125 -0.078125zm-0.890625 -1.078125l-2.515625 0q-0.25 0 -0.25 0.21875q0 0.234375 0.25 0.234375l2.53125 0q0.265625 0 0.25 -0.234375q0 -0.21875 -0.265625 -0.21875zm-1.25 2.125q-0.953125 0 -1.53125 0.4375q-0.5 0.40625 -0.5 0.984375q0 0.59375 0.5 1.0q0.5625 0.453125 1.53125 0.453125q0.953125 0 1.515625 -0.453125q0.5 -0.421875 0.5 -1.0q0 -0.578125 -0.5 -0.984375q-0.5625 -0.4375 -1.515625 -0.4375zm0 0.453125q0.71875 0 1.125 0.296875q0.34375 0.265625 0.34375 0.671875q0 0.40625 -0.34375 0.6875q-0.390625 0.3125 -1.125 0.3125q-0.71875 0 -1.125 -0.3125q-0.359375 -0.28125 -0.359375 -0.6875q0 -0.40625 0.359375 -0.671875q0.40625 -0.296875 1.125 -0.296875zm0.25 3.6875l0 -1.515625l-0.546875 0l0 1.5625q-0.609375 0.015625 -1.3125 0.03125q-0.53125 0.015625 -0.96875 0.015625q-0.125 0 -0.203125 0.0625q-0.0625 0.0625 -0.0625 0.15625q0 0.09375 0.078125 0.171875q0.078125 0.0625 0.234375 0.0625q1.765625 0 2.890625 -0.109375q1.34375 -0.140625 2.328125 -0.484375q0.203125 -0.078125 0.140625 -0.296875q-0.0625 -0.203125 -0.3125 -0.109375q-0.59375 0.1875 -1.203125 0.296875q-0.515625 0.109375 -1.0625 0.15625zm3.46875 -2.875l0 -3.421875q0 -0.109375 -0.09375 -0.171875q-0.0625 -0.0625 -0.171875 -0.0625q-0.109375 0 -0.1875 0.0625q-0.078125 0.078125 -0.078125 0.1875l0 7.09375q0 0.125 0.078125 0.203125q0.078125 0.078125 0.1875 0.078125q0.109375 0 0.171875 -0.078125q0.09375 -0.078125 0.09375 -0.1875l0 -3.265625l1.03125 0q0.09375 0 0.15625 -0.078125q0.046875 -0.0625 0.046875 -0.140625q-0.015625 -0.09375 -0.078125 -0.15625q-0.0625 -0.0625 -0.171875 -0.0625l-0.984375 0zm6.562504 -2.515625l0 2.375q0 0.203125 -0.09375 0.28125q-0.09375 0.078125 -0.3125 0.078125l-1.9531288 0q-0.21875 0 -0.3125 -0.078125q-0.09375 -0.078125 -0.09375 -0.28125l0 -2.34375q0 -0.234375 0.09375 -0.328125q0.09375 -0.09375 0.3125 -0.09375l1.9375038 0q0.234375 0 0.328125 0.09375q0.09375 0.09375 0.09375 0.296875zm-0.328125 -0.859375l-2.1562538 0q-0.375 0 -0.609375 0.234375q-0.203125 0.21875 -0.203125 0.546875l0 2.515625q0 0.328125 0.203125 0.546875q0.203125 0.203125 0.546875 0.203125l2.2500038 0q0.375 0 0.59375 -0.203125q0.234375 -0.1875 0.234375 -0.546875l0 -2.578125q0 -0.3125 -0.234375 -0.515625q-0.234375 -0.203125 -0.625 -0.203125zm3.359375 4.984375l0 -5.03125q0 -0.109375 -0.09375 -0.171875q-0.0625 -0.0625 -0.171875 -0.0625q-0.125 0 -0.203125 0.0625q-0.078125 0.078125 -0.078125 0.1875l0 1.171875l-1.546875 0q-0.140625 0 -0.21875 0.0625q-0.0625 0.0625 -0.0625 0.15625q0.015625 0.09375 0.078125 0.171875q0.09375 0.0625 0.234375 0.0625l1.515625 0l0 1.203125l-1.53125 0q-0.140625 0 -0.21875 0.0625q-0.0625 0.0625 -0.0625 0.15625q0 0.09375 0.0625 0.15625q0.09375 0.078125 0.21875 0.078125l1.53125 0l0 1.734375q0 0.140625 0.078125 0.21875q0.078125 0.078125 0.203125 0.078125q0.109375 0 0.171875 -0.078125q0.09375 -0.078125 0.09375 -0.21875zm-5.312504 0.109375q0 -0.140625 -0.078125 -0.21875q-0.078125 -0.078125 -0.1875 -0.078125q-0.125 0 -0.1875 0.078125q-0.09375 0.078125 -0.09375 0.21875l0 1.21875q0 0.40625 0.265625 0.609375q0.234375 0.203125 0.640625 0.203125l5.000004 0q0.234375 0 0.234375 -0.234375q0 -0.234375 -0.234375 -0.234375l-4.906254 0q-0.265625 0 -0.359375 -0.078125q-0.09375 -0.09375 -0.09375 -0.34375l0 -1.140625z" fill-rule="nonzero"/><path fill="#ffffff" d="m47.503834 39.378582l0 -6.671875l0.875 0l0 6.671875l-0.875 0zm2.4354095 0l0 -6.671875l2.296875 0q0.78125 0 1.1875 0.09375q0.578125 0.125 0.984375 0.46875q0.53125 0.453125 0.78125 1.15625q0.265625 0.6875 0.265625 1.578125q0 0.765625 -0.171875 1.359375q-0.171875 0.578125 -0.453125 0.96875q-0.28125 0.375 -0.609375 0.59375q-0.328125 0.21875 -0.796875 0.34375q-0.46875 0.109375 -1.078125 0.109375l-2.40625 0zm0.890625 -0.78125l1.421875 0q0.65625 0 1.03125 -0.125q0.375 -0.125 0.609375 -0.34375q0.3125 -0.328125 0.484375 -0.84375q0.171875 -0.53125 0.171875 -1.296875q0 -1.046875 -0.34375 -1.609375q-0.34375 -0.5625 -0.828125 -0.75q-0.359375 -0.140625 -1.15625 -0.140625l-1.390625 0l0 5.109375z" fill-rule="nonzero"/><path fill="#000000" d="m238.2313 26.569763l65.31705 0l0 18.89764l-65.31705 0z" fill-rule="evenodd"/><path stroke="#000000" stroke-width="1.0" stroke-miterlimit="800.0" stroke-linecap="butt" d="m238.2313 26.569763l65.31705 0l0 18.89764l-65.31705 0z" fill-rule="evenodd"/><path fill="#ffffff" d="m262.6476 33.566082l-4.296875 0q-0.265625 0 -0.265625 0.234375q0 0.234375 0.265625 0.234375l4.328125 0q0.125 0 0.1875 -0.078125q0.0625 -0.0625 0.0625 -0.15625q-0.015625 -0.09375 -0.078125 -0.15625q-0.078125 -0.078125 -0.203125 -0.078125zm-0.890625 -1.078125l-2.515625 0q-0.25 0 -0.25 0.21875q0 0.234375 0.25 0.234375l2.53125 0q0.265625 0 0.25 -0.234375q0 -0.21875 -0.265625 -0.21875zm-1.25 2.125q-0.953125 0 -1.53125 0.4375q-0.5 0.40625 -0.5 0.984375q0 0.59375 0.5 1.0q0.5625 0.453125 1.53125 0.453125q0.953125 0 1.515625 -0.453125q0.5 -0.421875 0.5 -1.0q0 -0.578125 -0.5 -0.984375q-0.5625 -0.4375 -1.515625 -0.4375zm0 0.453125q0.71875 0 1.125 0.296875q0.34375 0.265625 0.34375 0.671875q0 0.40625 -0.34375 0.6875q-0.390625 0.3125 -1.125 0.3125q-0.71875 0 -1.125 -0.3125q-0.359375 -0.28125 -0.359375 -0.6875q0 -0.40625 0.359375 -0.671875q0.40625 -0.296875 1.125 -0.296875zm0.25 3.6875l0 -1.515625l-0.546875 0l0 1.5625q-0.609375 0.015625 -1.3125 0.03125q-0.53125 0.015625 -0.96875 0.015625q-0.125 0 -0.203125 0.0625q-0.0625 0.0625 -0.0625 0.15625q0 0.09375 0.078125 0.171875q0.078125 0.0625 0.234375 0.0625q1.765625 0 2.890625 -0.109375q1.34375 -0.140625 2.328125 -0.484375q0.203125 -0.078125 0.140625 -0.296875q-0.0625 -0.203125 -0.3125 -0.109375q-0.59375 0.1875 -1.203125 0.296875q-0.515625 0.109375 -1.0625 0.15625zm3.46875 -2.875l0 -3.421875q0 -0.109375 -0.09375 -0.171875q-0.0625 -0.0625 -0.171875 -0.0625q-0.109375 0 -0.1875 0.0625q-0.078125 0.078125 -0.078125 0.1875l0 7.09375q0 0.125 0.078125 0.203125q0.078125 0.078125 0.1875 0.078125q0.109375 0 0.171875 -0.078125q0.09375 -0.078125 0.09375 -0.1875l0 -3.265625l1.03125 0q0.09375 0 0.15625 -0.078125q0.046875 -0.0625 0.046875 -0.140625q-0.015625 -0.09375 -0.078125 -0.15625q-0.0625 -0.0625 -0.171875 -0.0625l-0.984375 0zm6.5625305 -2.515625l0 2.375q0 0.203125 -0.09375 0.28125q-0.09375 0.078125 -0.3125 0.078125l-1.9531555 0q-0.21875 0 -0.3125 -0.078125q-0.09375 -0.078125 -0.09375 -0.28125l0 -2.34375q0 -0.234375 0.09375 -0.328125q0.09375 -0.09375 0.3125 -0.09375l1.9375305 0q0.234375 0 0.328125 0.09375q0.09375 0.09375 0.09375 0.296875zm-0.328125 -0.859375l-2.1562805 0q-0.375 0 -0.609375 0.234375q-0.203125 0.21875 -0.203125 0.546875l0 2.515625q0 0.328125 0.203125 0.546875q0.203125 0.203125 0.546875 0.203125l2.2500305 0q0.375 0 0.59375 -0.203125q0.234375 -0.1875 0.234375 -0.546875l0 -2.578125q0 -0.3125 -0.234375 -0.515625q-0.234375 -0.203125 -0.625 -0.203125zm3.359375 4.984375l0 -5.03125q0 -0.109375 -0.09375 -0.171875q-0.0625 -0.0625 -0.171875 -0.0625q-0.125 0 -0.203125 0.0625q-0.078125 0.078125 -0.078125 0.1875l0 1.171875l-1.546875 0q-0.140625 0 -0.21875 0.0625q-0.0625 0.0625 -0.0625 0.15625q0.015625 0.09375 0.078125 0.171875q0.09375 0.0625 0.234375 0.0625l1.515625 0l0 1.203125l-1.53125 0q-0.140625 0 -0.21875 0.0625q-0.0625 0.0625 -0.0625 0.15625q0 0.09375 0.0625 0.15625q0.09375 0.078125 0.21875 0.078125l1.53125 0l0 1.734375q0 0.140625 0.078125 0.21875q0.078125 0.078125 0.203125 0.078125q0.109375 0 0.171875 -0.078125q0.09375 -0.078125 0.09375 -0.21875zm-5.3125305 0.109375q0 -0.140625 -0.078125 -0.21875q-0.078125 -0.078125 -0.1875 -0.078125q-0.125 0 -0.1875 0.078125q-0.09375 0.078125 -0.09375 0.21875l0 1.21875q0 0.40625 0.265625 0.609375q0.234375 0.203125 0.640625 0.203125l5.0000305 0q0.234375 0 0.234375 -0.234375q0 -0.234375 -0.234375 -0.234375l-4.9062805 0q-0.265625 0 -0.359375 -0.078125q-0.09375 -0.09375 -0.09375 -0.34375l0 -1.140625zm11.6094055 -4.296875l0 2.046875q0 0.203125 -0.09375 0.28125q-0.09375 0.09375 -0.3125 0.09375l-1.953125 0q-0.21875 0 -0.3125 -0.09375q-0.09375 -0.0625 -0.09375 -0.265625l0 -2.03125q0 -0.234375 0.09375 -0.328125q0.09375 -0.109375 0.3125 -0.109375l1.9375 0q0.234375 0 0.328125 0.109375q0.09375 0.09375 0.09375 0.296875zm-0.28125 -0.859375l-2.203125 0q-0.375 0 -0.609375 0.234375q-0.203125 0.21875 -0.203125 0.546875l0 2.234375q0 0.328125 0.203125 0.53125q0.21875 0.1875 0.578125 0.1875l2.203125 0q0.375 0 0.609375 -0.1875q0.234375 -0.203125 0.234375 -0.53125l0 -2.296875q0 -0.328125 -0.21875 -0.53125q-0.21875 -0.1875 -0.59375 -0.1875zm3.3125 4.203125l0 -4.1875q0 -0.109375 -0.09375 -0.171875q-0.0625 -0.0625 -0.171875 -0.0625q-0.125 0 -0.203125 0.0625q-0.078125 0.078125 -0.078125 0.1875l0 0.953125l-1.546875 0q-0.140625 0 -0.21875 0.078125q-0.0625 0.0625 -0.0625 0.15625q0.015625 0.09375 0.078125 0.15625q0.09375 0.09375 0.234375 0.09375l1.515625 0l0 1.09375l-1.53125 0q-0.140625 0 -0.21875 0.078125q-0.0625 0.0625 -0.0625 0.15625q0 0.09375 0.0625 0.15625q0.09375 0.078125 0.21875 0.078125l1.53125 0l0 1.171875q0 0.140625 0.078125 0.21875q0.078125 0.078125 0.203125 0.078125q0.109375 0 0.171875 -0.078125q0.09375 -0.078125 0.09375 -0.21875zm-2.921875 0.4375q-1.5 0 -2.296875 0.40625q-0.703125 0.375 -0.703125 1.0q0 0.59375 0.703125 0.96875q0.796875 0.40625 2.296875 0.40625q1.484375 0 2.265625 -0.40625q0.71875 -0.375 0.71875 -0.96875q0 -0.625 -0.71875 -1.0q-0.78125 -0.40625 -2.265625 -0.40625zm0 0.46875q1.234375 0 1.875 0.265625q0.578125 0.234375 0.578125 0.671875q0 0.40625 -0.578125 0.640625q-0.640625 0.265625 -1.875 0.265625q-1.25 0 -1.890625 -0.265625q-0.578125 -0.234375 -0.578125 -0.640625q0 -0.4375 0.578125 -0.671875q0.640625 -0.265625 1.890625 -0.265625z" fill-rule="nonzero"/><path fill="#ffffff" d="m9.306247 45.028767l804.51306 0l0 18.897636l-804.51306 0z" fill-rule="evenodd"/><path stroke="#c0c0c0" stroke-width="1.0" stroke-miterlimit="800.0" stroke-linecap="butt" d="m9.306247 45.028767l804.51306 0l0 18.897636l-804.51306 0z" fill-rule="evenodd"/><path fill="#000000" d="m9.306247 45.02887l65.31706 0l0 18.89764l-65.31706 0z" fill-rule="evenodd"/><path stroke="#000000" stroke-width="1.0" stroke-miterlimit="800.0" stroke-linecap="butt" d="m9.306247 45.02887l65.31706 0l0 18.89764l-65.31706 0z" fill-rule="evenodd"/><path fill="#ffffff" d="m29.058525 52.02519l-4.296875 0q-0.265625 0 -0.265625 0.234375q0 0.234375 0.265625 0.234375l4.328125 0q0.125 0 0.1875 -0.078125q0.0625 -0.0625 0.0625 -0.15625q-0.015625 -0.09375 -0.078125 -0.15625q-0.078125 -0.078125 -0.203125 -0.078125zm-0.890625 -1.078125l-2.515625 0q-0.25 0 -0.25 0.21875q0 0.234375 0.25 0.234375l2.53125 0q0.265625 0 0.25 -0.234375q0 -0.21875 -0.265625 -0.21875zm-1.25 2.125q-0.953125 0 -1.53125 0.4375q-0.5 0.40625 -0.5 0.984375q0 0.59375 0.5 1.0q0.5625 0.453125 1.53125 0.453125q0.953125 0 1.515625 -0.453125q0.5 -0.421875 0.5 -1.0q0 -0.578125 -0.5 -0.984375q-0.5625 -0.4375 -1.515625 -0.4375zm0 0.453125q0.71875 0 1.125 0.296875q0.34375 0.265625 0.34375 0.671875q0 0.40625 -0.34375 0.6875q-0.390625 0.3125 -1.125 0.3125q-0.71875 0 -1.125 -0.3125q-0.359375 -0.28125 -0.359375 -0.6875q0 -0.40625 0.359375 -0.671875q0.40625 -0.296875 1.125 -0.296875zm0.25 3.6875l0 -1.515625l-0.546875 0l0 1.5625q-0.609375 0.015625 -1.3125 0.03125q-0.53125 0.015625 -0.96875 0.015625q-0.125 0 -0.203125 0.0625q-0.0625 0.0625 -0.0625 0.15625q0 0.09375 0.078125 0.171875q0.078125 0.0625 0.234375 0.0625q1.765625 0 2.890625 -0.109375q1.34375 -0.140625 2.328125 -0.484375q0.203125 -0.078125 0.140625 -0.296875q-0.0625 -0.203125 -0.3125 -0.109375q-0.59375 0.1875 -1.203125 0.296875q-0.515625 0.109375 -1.0625 0.15625zm3.46875 -2.875l0 -3.421875q0 -0.109375 -0.09375 -0.171875q-0.0625 -0.0625 -0.171875 -0.0625q-0.109375 0 -0.1875 0.0625q-0.078125 0.078125 -0.078125 0.1875l0 7.09375q0 0.125 0.078125 0.203125q0.078125 0.078125 0.1875 0.078125q0.109375 0 0.171875 -0.078125q0.09375 -0.078125 0.09375 -0.1875l0 -3.265625l1.03125 0q0.09375 0 0.15625 -0.078125q0.046875 -0.0625 0.046875 -0.140625q-0.015625 -0.09375 -0.078125 -0.15625q-0.0625 -0.0625 -0.171875 -0.0625l-0.984375 0zm6.5625 -2.515625l0 2.375q0 0.203125 -0.09375 0.28125q-0.09375 0.078125 -0.3125 0.078125l-1.953125 0q-0.21875 0 -0.3125 -0.078125q-0.09375 -0.078125 -0.09375 -0.28125l0 -2.34375q0 -0.234375 0.09375 -0.328125q0.09375 -0.09375 0.3125 -0.09375l1.9375 0q0.234375 0 0.328125 0.09375q0.09375 0.09375 0.09375 0.296875zm-0.328125 -0.859375l-2.15625 0q-0.375 0 -0.609375 0.234375q-0.203125 0.21875 -0.203125 0.546875l0 2.515625q0 0.328125 0.203125 0.546875q0.203125 0.203125 0.546875 0.203125l2.25 0q0.375 0 0.59375 -0.203125q0.234375 -0.1875 0.234375 -0.546875l0 -2.578125q0 -0.3125 -0.234375 -0.515625q-0.234375 -0.203125 -0.625 -0.203125zm3.359375 4.984375l0 -5.03125q0 -0.109375 -0.09375 -0.171875q-0.0625 -0.0625 -0.171875 -0.0625q-0.125 0 -0.203125 0.0625q-0.078125 0.078125 -0.078125 0.1875l0 1.171875l-1.546875 0q-0.140625 0 -0.21875 0.0625q-0.0625 0.0625 -0.0625 0.15625q0.015625 0.09375 0.078125 0.171875q0.09375 0.0625 0.234375 0.0625l1.515625 0l0 1.203125l-1.53125 0q-0.140625 0 -0.21875 0.0625q-0.0625 0.0625 -0.0625 0.15625q0 0.09375 0.0625 0.15625q0.09375 0.078125 0.21875 0.078125l1.53125 0l0 1.734375q0 0.140625 0.078125 0.21875q0.078125 0.078125 0.203125 0.078125q0.109375 0 0.171875 -0.078125q0.09375 -0.078125 0.09375 -0.21875zm-5.3125 0.109375q0 -0.140625 -0.078125 -0.21875q-0.078125 -0.078125 -0.1875 -0.078125q-0.125 0 -0.1875 0.078125q-0.09375 0.078125 -0.09375 0.21875l0 1.21875q0 0.40625 0.265625 0.609375q0.234375 0.203125 0.640625 0.203125l5.0 0q0.234375 0 0.234375 -0.234375q0 -0.234375 -0.234375 -0.234375l-4.90625 0q-0.265625 0 -0.359375 -0.078125q-0.09375 -0.09375 -0.09375 -0.34375l0 -1.140625zm11.187504 -5.15625l-2.78125 0q-0.25 0 -0.25 0.21875q0 0.234375 0.25 0.234375l2.734375 0q0.1875 0 0.296875 0.09375q0.125 0.09375 0.125 0.28125l0 0.40625q0 1.03125 -0.859375 1.609375q-0.828125 0.546875 -2.421875 0.609375q-0.125 0 -0.21875 0.09375q-0.0625 0.0625 -0.0625 0.15625q0 0.09375 0.078125 0.15625q0.09375 0.0625 0.21875 0.0625q1.796875 -0.078125 2.796875 -0.796875q0.984375 -0.71875 0.984375 -1.875l0 -0.484375q0 -0.34375 -0.265625 -0.5625q-0.234375 -0.203125 -0.625 -0.203125zm3.453125 4.234375l0 -4.171875q0 -0.140625 -0.09375 -0.21875q-0.0625 -0.0625 -0.171875 -0.0625q-0.125 0 -0.203125 0.0625q-0.078125 0.078125 -0.078125 0.21875l0 0.875l-1.5625 0q-0.140625 0 -0.21875 0.0625q-0.078125 0.078125 -0.078125 0.171875q0 0.09375 0.078125 0.15625q0.078125 0.078125 0.21875 0.078125l1.5625 0l0 1.34375l-1.5625 0q-0.140625 0 -0.21875 0.078125q-0.078125 0.0625 -0.078125 0.171875q0 0.078125 0.078125 0.140625q0.078125 0.09375 0.21875 0.09375l1.5625 0l0 1.0q0 0.109375 0.078125 0.1875q0.078125 0.0625 0.203125 0.0625q0.109375 0 0.171875 -0.0625q0.09375 -0.078125 0.09375 -0.1875zm-2.921875 0.234375q-1.5 0 -2.296875 0.4375q-0.703125 0.40625 -0.703125 1.046875q0 0.625 0.703125 1.015625q0.796875 0.453125 2.296875 0.453125q1.46875 0 2.265625 -0.453125q0.71875 -0.390625 0.71875 -1.015625q0 -0.640625 -0.71875 -1.046875q-0.78125 -0.4375 -2.265625 -0.4375zm0 0.453125q1.21875 0 1.875 0.296875q0.578125 0.28125 0.578125 0.734375q0 0.421875 -0.578125 0.703125q-0.65625 0.296875 -1.875 0.296875q-1.234375 0 -1.890625 -0.296875q-0.578125 -0.28125 -0.578125 -0.703125q0 -0.453125 0.578125 -0.734375q0.640625 -0.296875 1.890625 -0.296875zm11.328125 -4.90625l-4.75 0q-0.265625 0 -0.265625 0.25q0 0.234375 0.25 0.234375l4.6875 0q0.21875 0 0.328125 0.0625q0.09375 0.078125 0.09375 0.25l0 0.75q0 0.140625 -0.109375 0.203125q-0.09375 0.078125 -0.296875 0.078125l-4.140625 0q-0.40625 0 -0.640625 0.21875q-0.203125 0.203125 -0.203125 0.546875l0 0.984375q0 0.375 0.203125 0.59375q0.203125 0.203125 0.546875 0.203125l5.140625 0q0.125 0 0.1875 -0.0625q0.0625 -0.078125 0.0625 -0.171875q0 -0.09375 -0.078125 -0.15625q-0.078125 -0.0625 -0.1875 -0.0625l-4.90625 0q-0.234375 0 -0.328125 -0.09375q-0.09375 -0.078125 -0.09375 -0.265625l0 -0.90625q0 -0.203125 0.09375 -0.28125q0.078125 -0.078125 0.296875 -0.078125l4.125 0q0.453125 0 0.65625 -0.15625q0.21875 -0.171875 0.21875 -0.546875l0 -0.84375q0 -0.375 -0.21875 -0.5625q-0.234375 -0.1875 -0.671875 -0.1875zm-2.265625 4.515625l0 1.78125l-3.28125 0q-0.125 0 -0.203125 0.0625q-0.0625 0.078125 -0.0625 0.15625q-0.015625 0.09375 0.046875 0.171875q0.046875 0.078125 0.15625 0.078125l7.140625 0q0.125 0 0.203125 -0.078125q0.0625 -0.078125 0.0625 -0.171875q0 -0.078125 -0.0625 -0.15625q-0.078125 -0.0625 -0.203125 -0.0625l-3.265625 0l0 -1.75q0 -0.125 -0.09375 -0.1875q-0.078125 -0.078125 -0.171875 -0.078125q-0.109375 -0.015625 -0.1875 0.046875q-0.078125 0.078125 -0.078125 0.1875z" fill-rule="nonzero"/><path fill="#000000" fill-opacity="0.0" d="m300.56348 25.704042l510.2677 0l0 22.614172l-510.2677 0z" fill-rule="evenodd"/><path fill="#000000" fill-opacity="0.0" d="m70.767456 25.707087l228.8819 0l0 22.614172l-228.8819 0z" fill-rule="evenodd"/><path fill="#000000" fill-opacity="0.0" d="m70.76756 43.697006l740.78735 0l0 22.614174l-740.78735 0z" fill-rule="evenodd"/></g></svg>